# Blender 5.2.0 LTS
# www.blender.org
mtllib VCR.mtl
o cuboid
v 0.437500 0.062500 -0.437500
v 0.437500 0.187500 0.375000
v 0.437500 0.187500 -0.375000
v 0.437500 0.062500 0.375000
v -0.409375 0.187500 -0.375000
v -0.064062 0.062500 -0.437500
v -0.064062 0.187500 -0.375000
v -0.409375 0.062500 -0.437500
v -0.335547 0.293750 -0.375000
v -0.137891 0.206250 -0.375000
v -0.137891 0.293750 -0.375000
v -0.335547 0.206250 -0.375000
v -0.437500 0.312500 -0.375000
v -0.437500 0.187500 -0.375000
v -0.437500 0.187500 0.375000
v -0.437500 0.312500 0.375000
v 0.437500 0.312500 0.375000
v 0.437500 0.187500 0.375000
v 0.437500 0.187500 -0.375000
v 0.437500 0.312500 -0.375000
v 0.437500 0.187500 -0.375000
v 0.406250 0.187500 -0.375000
v 0.406250 0.312500 -0.375000
v 0.437500 0.312500 -0.375000
v 0.437500 0.312500 -0.375000
v 0.406250 0.312500 -0.375000
v 0.406250 0.312500 0.375000
v 0.437500 0.312500 0.375000
v 0.437500 0.312500 0.375000
v 0.406250 0.312500 0.375000
v 0.406250 0.187500 0.375000
v 0.437500 0.187500 0.375000
v 0.437500 0.187500 0.375000
v 0.406250 0.187500 0.375000
v 0.406250 0.062500 0.375000
v 0.437500 0.062500 0.375000
v 0.437500 0.062500 0.375000
v 0.406250 0.062500 0.375000
v 0.406250 0.062500 -0.437500
v 0.437500 0.062500 -0.437500
v 0.437500 0.062500 -0.437500
v 0.406250 0.062500 -0.437500
v 0.406250 0.187500 -0.375000
v 0.437500 0.187500 -0.375000
v -0.437500 0.312500 -0.375000
v -0.409375 0.312500 -0.375000
v -0.409375 0.187500 -0.375000
v -0.437500 0.187500 -0.375000
v -0.437500 0.187500 -0.375000
v -0.409375 0.187500 -0.375000
v -0.409375 0.062500 -0.437500
v -0.437500 0.062500 -0.437500
v -0.437500 0.062500 -0.437500
v -0.409375 0.062500 -0.437500
v -0.409375 0.062500 0.375000
v -0.437500 0.062500 0.375000
v -0.437500 0.062500 0.375000
v -0.409375 0.062500 0.375000
v -0.409375 0.187500 0.375000
v -0.437500 0.187500 0.375000
v -0.437500 0.187500 0.375000
v -0.409375 0.187500 0.375000
v -0.409375 0.312500 0.375000
v -0.437500 0.312500 0.375000
v -0.437500 0.312500 0.375000
v -0.409375 0.312500 0.375000
v -0.409375 0.312500 -0.375000
v -0.437500 0.312500 -0.375000
v -0.064062 0.312500 -0.375000
v 0.014844 0.187500 -0.375000
v 0.014844 0.312500 -0.375000
v -0.064062 0.187500 -0.375000
v -0.064062 0.187500 -0.375000
v 0.014844 0.062500 -0.437500
v 0.014844 0.187500 -0.375000
v -0.064062 0.062500 -0.437500
v 0.370898 0.206250 -0.368750
v 0.050195 0.206250 -0.368750
v 0.050195 0.293750 -0.368750
v 0.370898 0.293750 -0.368750
v 0.406250 0.312500 0.375000
v 0.406250 0.312500 -0.375000
v -0.409375 0.312500 0.375000
v -0.409375 0.312500 -0.375000
v 0.414844 0.000000 -0.421875
v 0.414844 0.000000 0.359375
v -0.417969 0.000000 -0.421875
v -0.417969 0.000000 0.359375
v 0.406250 0.062500 -0.437500
v 0.014844 0.062500 -0.437500
v 0.014844 0.187500 -0.375000
v 0.406250 0.187500 -0.375000
v 0.414844 0.062500 -0.421875
v -0.417969 0.062500 -0.421875
v -0.409375 0.062500 -0.437500
v 0.406250 0.062500 -0.437500
v 0.414844 0.062500 0.359375
v 0.414844 0.062500 -0.421875
v 0.406250 0.062500 -0.437500
v 0.406250 0.062500 0.375000
v -0.417969 0.062500 0.359375
v 0.414844 0.062500 0.359375
v 0.406250 0.062500 0.375000
v -0.409375 0.062500 0.375000
v -0.417969 0.062500 -0.421875
v -0.417969 0.062500 0.359375
v -0.409375 0.062500 0.375000
v -0.409375 0.062500 -0.437500
v 0.414844 0.000000 -0.421875
v -0.417969 0.000000 -0.421875
v -0.417969 0.062500 -0.421875
v 0.414844 0.062500 -0.421875
v 0.414844 0.000000 0.359375
v 0.414844 0.000000 -0.421875
v 0.414844 0.062500 -0.421875
v 0.414844 0.062500 0.359375
v -0.417969 0.000000 0.359375
v 0.414844 0.000000 0.359375
v 0.414844 0.062500 0.359375
v -0.417969 0.062500 0.359375
v -0.417969 0.000000 -0.421875
v -0.417969 0.000000 0.359375
v -0.417969 0.062500 0.359375
v -0.417969 0.062500 -0.421875
v 0.050195 0.206250 -0.375000
v 0.370898 0.206250 -0.375000
v 0.406250 0.187500 -0.375000
v 0.014844 0.187500 -0.375000
v 0.050195 0.293750 -0.375000
v 0.050195 0.206250 -0.375000
v 0.014844 0.187500 -0.375000
v 0.014844 0.312500 -0.375000
v 0.370898 0.293750 -0.375000
v 0.050195 0.293750 -0.375000
v 0.014844 0.312500 -0.375000
v 0.406250 0.312500 -0.375000
v 0.370898 0.206250 -0.375000
v 0.370898 0.293750 -0.375000
v 0.406250 0.312500 -0.375000
v 0.406250 0.187500 -0.375000
v 0.050195 0.206250 -0.368750
v 0.370898 0.206250 -0.368750
v 0.370898 0.206250 -0.375000
v 0.050195 0.206250 -0.375000
v 0.050195 0.293750 -0.368750
v 0.050195 0.206250 -0.368750
v 0.050195 0.206250 -0.375000
v 0.050195 0.293750 -0.375000
v 0.370898 0.293750 -0.368750
v 0.050195 0.293750 -0.368750
v 0.050195 0.293750 -0.375000
v 0.370898 0.293750 -0.375000
v 0.370898 0.206250 -0.368750
v 0.370898 0.293750 -0.368750
v 0.370898 0.293750 -0.375000
v 0.370898 0.206250 -0.375000
v -0.137891 0.293750 -0.375000
v -0.335547 0.293750 -0.375000
v -0.409375 0.312500 -0.375000
v -0.064062 0.312500 -0.375000
v -0.137891 0.206250 -0.375000
v -0.137891 0.293750 -0.375000
v -0.064062 0.312500 -0.375000
v -0.064062 0.187500 -0.375000
v -0.335547 0.206250 -0.375000
v -0.137891 0.206250 -0.375000
v -0.064062 0.187500 -0.375000
v -0.409375 0.187500 -0.375000
v -0.335547 0.293750 -0.375000
v -0.335547 0.206250 -0.375000
v -0.409375 0.187500 -0.375000
v -0.409375 0.312500 -0.375000
v -0.437500 0.062500 0.375000
v -0.437500 0.187500 -0.375000
v -0.437500 0.187500 0.375000
v -0.437500 0.062500 -0.437500
v 0.406250 0.062500 0.375000
v 0.406250 0.312500 0.375000
v -0.409375 0.062500 0.375000
v -0.409375 0.312500 0.375000
vn 1.0000 -0.0000 -0.0000
vn -0.0000 0.4472 -0.8944
vn -0.0000 -0.0000 -1.0000
vn -1.0000 -0.0000 -0.0000
vn -0.0000 1.0000 -0.0000
vn -0.0000 -0.0000 1.0000
vn -0.0000 -1.0000 -0.0000
vt 0.421875 0.843750
vt 0.406250 0.875000
vt 0.218750 0.875000
vt 0.218750 0.843750
vt 0.430469 0.968750
vt 0.344141 0.968750
vt 0.344141 0.933812
vt 0.430469 0.933812
vt 0.412011 0.995313
vt 0.362597 0.995313
vt 0.362597 0.973437
vt 0.412011 0.973437
vt 0.250000 0.828125
vt 0.250000 0.796875
vt 0.437500 0.796875
vt 0.437500 0.828125
vt 0.218750 0.906250
vt 0.406250 0.906250
vt 0.218750 0.968750
vt 0.226562 0.968750
vt 0.226562 1.000000
vt 0.218750 1.000000
vt 0.218750 0.781250
vt 0.210938 0.781250
vt 0.210938 0.593750
vt 0.218750 0.593750
vt 0.101562 0.546875
vt 0.093750 0.546875
vt 0.093750 0.515625
vt 0.101562 0.515625
vt 0.093750 0.484375
vt 0.101562 0.484375
vt 0.250000 0.609375
vt 0.234375 0.609375
vt 0.234375 0.406250
vt 0.250000 0.406250
vt 0.218750 0.933812
vt 0.226562 0.933812
vt 0.437500 1.000000
vt 0.430469 1.000000
vt 0.437500 0.968750
vt 0.437500 0.933812
vt 0.265625 0.406250
vt 0.281250 0.406250
vt 0.281250 0.609375
vt 0.265625 0.609375
vt 0.125391 0.484375
vt 0.132422 0.484375
vt 0.132422 0.515625
vt 0.125391 0.515625
vt 0.132422 0.546875
vt 0.125391 0.546875
vt 0.000000 0.593750
vt 0.007031 0.593750
vt 0.007031 0.781250
vt 0.000000 0.781250
vt 0.344141 1.000000
vt 0.324414 1.000000
vt 0.324414 0.968750
vt 0.324414 0.933812
vt 0.437500 0.859375
vt 0.515625 0.859375
vt 0.515625 0.875000
vt 0.437500 0.875000
vt 0.000000 0.796875
vt 0.203125 0.796875
vt 0.203125 1.000000
vt 0.000000 1.000000
vt 0.442969 0.671875
vt 0.234766 0.671875
vt 0.236914 0.656250
vt 0.440820 0.656250
vt 0.312500 0.410156
vt 0.312500 0.605469
vt 0.296875 0.609375
vt 0.296875 0.406250
vt 0.234766 0.625000
vt 0.442969 0.625000
vt 0.440820 0.640625
vt 0.236914 0.640625
vt 0.328125 0.605469
vt 0.328125 0.410156
vt 0.343750 0.406250
vt 0.343750 0.609375
vt 0.359375 0.593750
vt 0.562500 0.593750
vt 0.562500 0.609375
vt 0.359375 0.609375
vt 0.000000 0.562500
vt 0.203125 0.562500
vt 0.203125 0.578125
vt 0.000000 0.578125
vt 0.359375 0.562500
vt 0.562500 0.562500
vt 0.562500 0.578125
vt 0.359375 0.578125
vt 0.437500 0.890625
vt 0.640625 0.890625
vt 0.640625 0.906250
vt 0.437500 0.906250
vt 0.315577 0.973437
vt 0.235400 0.973437
vt 0.315577 0.995313
vt 0.235400 0.995313
vt 0.000000 0.531250
vt 0.078125 0.531250
vt 0.078125 0.546875
vt 0.000000 0.546875
vt 0.218750 0.828125
vt 0.218750 0.812500
vt 0.234375 0.812500
vt 0.234375 0.828125
vt 0.531250 1.000000
vt 0.453125 1.000000
vt 0.453125 0.984375
vt 0.531250 0.984375
vt 0.468750 0.953125
vt 0.468750 0.968750
vt 0.453125 0.968750
vt 0.453125 0.953125
vt 0.437500 0.765625
vt 0.234375 0.765625
vt 0.234375 0.687500
vt 0.437500 0.687500
vt 0.437500 0.750000
vt 0.234375 0.750000
s 0
usemtl Material_0
f 1/1/1 3/2/1 2/3/1
f 1/1/1 2/3/1 4/4/1
f 5/5/2 7/6/2 6/7/2
f 5/5/2 6/7/2 8/8/2
f 9/9/3 11/10/3 10/11/3
f 9/9/3 10/11/3 12/12/3
f 13/13/4 14/14/4 15/15/4
f 13/13/4 15/15/4 16/16/4
f 17/17/1 18/3/1 19/2/1
f 17/17/1 19/2/1 20/18/1
f 21/19/3 22/20/3 23/21/3
f 21/19/3 23/21/3 24/22/3
f 25/23/5 26/24/5 27/25/5
f 25/23/5 27/25/5 28/26/5
f 29/27/6 30/28/6 31/29/6
f 29/27/6 31/29/6 32/30/6
f 33/30/6 34/29/6 35/31/6
f 33/30/6 35/31/6 36/32/6
f 37/33/7 38/34/7 39/35/7
f 37/33/7 39/35/7 40/36/7
f 41/37/2 42/38/2 43/20/2
f 41/37/2 43/20/2 44/19/2
f 45/39/3 46/40/3 47/5/3
f 45/39/3 47/5/3 48/41/3
f 49/41/2 50/5/2 51/8/2
f 49/41/2 51/8/2 52/42/2
f 53/43/7 54/44/7 55/45/7
f 53/43/7 55/45/7 56/46/7
f 57/47/6 58/48/6 59/49/6
f 57/47/6 59/49/6 60/50/6
f 61/50/6 62/49/6 63/51/6
f 61/50/6 63/51/6 64/52/6
f 65/53/5 66/54/5 67/55/5
f 65/53/5 67/55/5 68/56/5
f 69/57/3 71/58/3 70/59/3
f 69/57/3 70/59/3 72/6/3
f 73/6/2 75/59/2 74/60/2
f 73/6/2 74/60/2 76/7/2
f 77/61/3 78/62/3 79/63/3
f 77/61/3 79/63/3 80/64/3
f 83/54/5 81/25/5 82/24/5
f 83/54/5 82/24/5 84/55/5
f 87/65/7 85/66/7 86/67/7
f 87/65/7 86/67/7 88/68/7
f 89/38/2 90/60/2 91/59/2
f 89/38/2 91/59/2 92/20/2
f 93/69/7 94/70/7 95/71/7
f 93/69/7 95/71/7 96/72/7
f 97/73/5 98/74/5 99/75/5
f 97/73/5 99/75/5 100/76/5
f 101/77/7 102/78/7 103/79/7
f 101/77/7 103/79/7 104/80/7
f 105/81/5 106/82/5 107/83/5
f 105/81/5 107/83/5 108/84/5
f 109/85/3 110/86/3 111/87/3
f 109/85/3 111/87/3 112/88/3
f 113/89/1 114/90/1 115/91/1
f 113/89/1 115/91/1 116/92/1
f 117/93/6 118/94/6 119/95/6
f 117/93/6 119/95/6 120/96/6
f 121/97/4 122/98/4 123/99/4
f 121/97/4 123/99/4 124/100/4
f 125/101/3 126/102/3 127/20/3
f 125/101/3 127/20/3 128/59/3
f 129/103/3 130/101/3 131/59/3
f 129/103/3 131/59/3 132/58/3
f 133/104/3 134/103/3 135/58/3
f 133/104/3 135/58/3 136/21/3
f 137/102/3 138/104/3 139/21/3
f 137/102/3 139/21/3 140/20/3
f 141/105/5 142/106/5 143/107/5
f 141/105/5 143/107/5 144/108/5
f 145/109/1 146/110/1 147/111/1
f 145/109/1 147/111/1 148/112/1
f 149/113/7 150/114/7 151/115/7
f 149/113/7 151/115/7 152/116/7
f 153/117/4 154/118/4 155/119/4
f 153/117/4 155/119/4 156/120/4
f 157/10/3 158/9/3 159/40/3
f 157/10/3 159/40/3 160/57/3
f 161/11/3 162/10/3 163/57/3
f 161/11/3 163/57/3 164/6/3
f 165/12/3 166/11/3 167/6/3
f 165/12/3 167/6/3 168/5/3
f 169/9/3 170/12/3 171/5/3
f 169/9/3 171/5/3 172/40/3
f 173/121/4 175/15/4 174/14/4
f 173/121/4 174/14/4 176/122/4
f 179/123/6 177/124/6 178/125/6
f 179/123/6 178/125/6 180/126/6
