# Blender 4.5.3 LTS
# www.blender.org
mtllib VL_22M_rama1.mtl
o vl22m.006
v 50.154751 346.854126 93.125999
v 72.559296 342.048584 93.125999
v -60.512604 345.035736 93.125999
v -73.091652 341.150635 93.125999
v 61.707901 -345.714813 93.125999
v 77.649750 259.913940 93.125999
v 77.649895 334.567108 93.125999
v 77.649345 -260.593109 93.125999
v -73.092148 -341.829620 93.125999
v -74.911850 -340.108002 93.125999
v -76.454552 -335.246124 93.125999
v -76.454300 -175.289337 93.125999
v 76.106606 -340.108063 93.125999
v 77.081551 -338.122101 93.125999
v -36.894848 347.851624 93.126053
v -16.401600 348.285553 93.126053
v 38.090149 -348.530609 93.125999
v 17.596901 -348.964600 93.125999
v -71.363449 342.048706 93.125999
v -37.688198 -383.609558 93.147247
v -37.282352 382.916687 93.147301
v 37.282352 382.916687 79.193649
v 36.876499 -383.609558 79.193649
v -37.688198 -383.609558 79.193649
v -37.282402 382.916687 79.193649
v 37.282352 382.916687 93.147301
v 36.876499 -383.609558 93.147247
v -33.231400 347.929108 93.126053
v 0.597000 348.645538 93.126053
v 18.765650 348.260864 93.126053
v 35.396900 347.908630 93.126053
v 38.090649 347.851624 93.126053
v 74.287498 341.150604 93.126053
v 76.107147 339.428986 93.125999
v 61.708450 345.035736 93.125999
v 77.082100 337.442993 93.125999
v 77.649651 174.610397 93.125999
v 77.649498 76.043350 93.125999
v 77.649452 -0.340750 93.125999
v -76.454048 259.914032 93.125999
v 74.286949 -341.829651 93.125999
v 72.558746 -342.727722 93.125999
v 50.154198 -347.533264 93.125999
v 34.426701 -348.608154 93.125999
v 0.598350 -349.324646 93.125999
v -17.570301 -348.939789 93.125999
v -48.959400 -347.533203 93.125999
v -34.201550 -348.587646 93.125999
v -36.895298 -348.530609 93.125999
v -60.513096 -345.714813 93.125999
v -71.363998 -342.727661 93.125999
v -75.886749 -338.122070 93.125999
v -76.454453 -260.593018 93.125999
v -76.454201 -76.722351 93.125999
v 77.649345 -335.246155 93.125999
v -76.454048 -0.339600 93.125999
v -61.927952 -382.612244 92.520454
v -64.977905 -378.747650 92.520454
v -59.544201 -383.570648 92.520454
v -65.759399 -376.580994 92.520454
v 60.830498 -383.570648 92.520500
v -66.127151 -343.612396 92.520454
v 67.045700 -376.581055 92.520500
v 66.264153 -378.747711 92.520500
v 65.058502 -380.944061 92.520500
v 63.214199 -382.612244 92.520500
v 65.073051 380.264648 92.520454
v 66.278702 378.068298 92.520454
v 60.845047 382.891235 92.520454
v 67.060204 375.901611 92.520454
v 67.428001 373.295135 92.520454
v 67.427948 342.933014 92.520454
v -65.744850 375.901703 92.520500
v -66.112602 342.933044 92.520454
v -59.529697 382.891296 92.520454
v -63.757698 380.264709 92.520454
v -61.913403 381.932892 92.520454
v -76.454048 334.567047 93.125999
v -75.886200 337.443085 93.125999
v -74.911301 339.428986 93.126053
v -48.958900 346.854126 93.125999
v -66.127151 -373.974487 92.520454
v -63.772247 -380.944061 92.520454
v 63.228752 381.932800 92.520454
v -64.963356 378.068298 92.520500
v -66.112602 373.295135 92.520500
v 67.413399 -373.974457 92.520500
v 67.413399 -343.612366 92.520500
vn -0.0000 -0.0000 -1.0000
vn -1.0000 0.0005 -0.0000
vn 1.0000 -0.0005 -0.0000
vn -0.0000 0.0001 -1.0000
vn -0.0000 -0.0001 -1.0000
vn -0.0001 -0.0000 -1.0000
vn 0.0001 -0.0000 -1.0000
vt 0.488597 0.893309
vt 0.477387 0.896681
vt 0.406599 0.902867
vt 0.736705 0.993428
vt 0.736705 0.006650
vt 0.780792 0.006650
vt 0.780792 0.993428
vt 0.496652 0.993428
vt 0.497934 0.006650
vt 0.733526 0.006650
vt 0.732243 0.993428
vt 0.828058 0.006650
vt 0.828058 0.993428
vt 0.783971 0.993428
vt 0.783971 0.006650
vt 0.368482 0.904151
vt 0.356907 0.904251
vt 0.303733 0.904710
vt 0.250024 0.905173
vt 0.192620 0.904678
vt 0.140072 0.904225
vt 0.131561 0.904151
vt 0.093444 0.902867
vt 0.056940 0.900526
vt 0.022656 0.896681
vt 0.017195 0.895525
vt 0.011446 0.893309
vt 0.008366 0.890752
vt 0.006572 0.887050
vt 0.006572 0.790946
vt 0.006573 0.681131
vt 0.006573 0.554242
vt 0.006573 0.455910
vt 0.493471 0.887050
vt 0.493472 0.790946
vt 0.493471 0.455911
vt 0.006573 0.024773
vt 0.008368 0.021071
vt 0.011448 0.018515
vt 0.017197 0.016298
vt 0.022658 0.015142
vt 0.056941 0.011297
vt 0.093446 0.008956
vt 0.131563 0.007672
vt 0.143138 0.007572
vt 0.196312 0.007113
vt 0.250020 0.006650
vt 0.307425 0.007145
vt 0.359973 0.007598
vt 0.368484 0.007672
vt 0.406601 0.008956
vt 0.443105 0.011297
vt 0.477389 0.015142
vt 0.482850 0.016298
vt 0.488599 0.018515
vt 0.491679 0.021071
vt 0.493473 0.024773
vt 0.493473 0.120877
vt 0.493472 0.230692
vt 0.493472 0.357581
vt 0.006573 0.120877
vt 0.993344 0.269336
vt 0.989455 0.271726
vt 0.982688 0.273575
vt 0.973777 0.274784
vt 0.964987 0.275568
vt 0.954413 0.275936
vt 0.831237 0.275936
vt 0.993344 0.148650
vt 0.831237 0.142050
vt 0.954413 0.142050
vt 0.964987 0.142418
vt 0.973777 0.143202
vt 0.982688 0.144411
vt 0.989456 0.146260
vt 0.831237 0.013250
vt 0.835126 0.010860
vt 0.841893 0.009011
vt 0.850803 0.007802
vt 0.859594 0.007018
vt 0.870168 0.006650
vt 0.993344 0.006650
vt 0.831237 0.133937
vt 0.993343 0.140537
vt 0.870168 0.140537
vt 0.859593 0.140168
vt 0.850803 0.139384
vt 0.841893 0.138176
vt 0.835125 0.136326
vt 0.491677 0.890752
vt 0.482848 0.895525
vt 0.443104 0.900526
s 0
usemtl material__425825m.onetex.001
f 80/1/1 19/2/1 81/3/1
f 25/4/2 24/5/2 20/6/2
f 20/6/2 21/7/2 25/4/2
f 22/8/1 23/9/1 24/10/1
f 24/10/1 25/11/1 22/8/1
f 23/12/3 22/13/3 26/14/3
f 26/14/3 27/15/3 23/12/3
f 81/3/4 15/16/4 28/17/4
f 81/3/4 28/17/4 16/18/4
f 16/18/1 29/19/1 30/20/1
f 16/18/1 30/20/1 31/21/1
f 81/3/1 16/18/1 31/21/1
f 32/22/5 1/23/5 35/24/5
f 31/21/1 32/22/1 35/24/1
f 35/24/5 2/25/5 33/26/5
f 33/26/6 34/27/6 36/28/6
f 35/24/1 33/26/1 36/28/1
f 31/21/1 35/24/1 36/28/1
f 81/3/1 31/21/1 36/28/1
f 36/28/1 7/29/1 6/30/1
f 36/28/1 6/30/1 37/31/1
f 36/28/1 37/31/1 38/32/1
f 36/28/1 38/32/1 39/33/1
f 81/3/1 36/28/1 39/33/1
f 80/1/1 81/3/1 39/33/1
f 78/34/1 80/1/1 39/33/1
f 40/35/1 78/34/1 39/33/1
f 56/36/1 40/35/1 39/33/1
f 55/37/1 14/38/1 13/39/1
f 13/39/1 41/40/1 42/41/1
f 42/41/1 5/42/1 43/43/1
f 13/39/1 42/41/1 43/43/1
f 43/43/1 17/44/1 44/45/1
f 43/43/1 44/45/1 18/46/1
f 18/46/1 45/47/1 46/48/1
f 18/46/1 46/48/1 48/49/1
f 43/43/1 18/46/1 48/49/1
f 49/50/1 47/51/1 50/52/1
f 48/49/1 49/50/1 50/52/1
f 50/52/1 51/53/1 9/54/1
f 9/54/1 10/55/1 52/56/1
f 50/52/1 9/54/1 52/56/1
f 48/49/1 50/52/1 52/56/1
f 43/43/1 48/49/1 52/56/1
f 52/56/1 11/57/1 53/58/1
f 52/56/1 53/58/1 12/59/1
f 52/56/1 12/59/1 54/60/1
f 52/56/6 54/60/6 56/36/6
f 43/43/1 52/56/1 56/36/1
f 13/39/1 43/43/1 56/36/1
f 55/37/1 13/39/1 56/36/1
f 8/61/1 55/37/1 56/36/1
f 39/33/1 8/61/1 56/36/1
f 59/62/1 57/63/1 83/64/1
f 83/64/1 58/65/1 60/66/1
f 59/62/1 83/64/1 60/66/1
f 60/66/1 82/67/1 62/68/1
f 59/62/1 60/66/1 62/68/1
f 61/69/1 59/62/1 62/68/1
f 61/69/1 62/68/1 88/70/1
f 88/70/1 87/71/1 63/72/1
f 61/69/1 88/70/1 63/72/1
f 63/72/1 64/73/1 65/74/1
f 61/69/1 63/72/1 65/74/1
f 61/69/1 65/74/1 66/75/1
f 69/76/1 84/77/1 67/78/1
f 67/78/1 68/79/1 70/80/1
f 69/76/1 67/78/1 70/80/1
f 70/80/1 71/81/1 72/82/1
f 69/76/1 70/80/1 72/82/1
f 75/83/1 69/76/1 72/82/1
f 75/83/1 72/82/1 74/84/1
f 74/84/1 86/85/1 73/86/1
f 75/83/1 74/84/1 73/86/1
f 73/86/6 85/87/6 76/88/6
f 75/83/1 73/86/1 76/88/1
f 75/83/1 76/88/1 77/89/1
f 78/34/7 79/90/7 80/1/7
f 80/1/5 4/91/5 19/2/5
f 19/2/1 3/92/1 81/3/1
